<?xml version="1.0" encoding="UTF-8"?>
<svg id="Capa_2" data-name="Capa 2" xmlns="http://www.w3.org/2000/svg" viewBox="0 0 138.1 140.17">
  <defs>
    <style>
      .cls-1 {
        letter-spacing: 0em;
      }

      .cls-2 {
        letter-spacing: 0em;
      }

      .cls-3, .cls-4 {
        fill: #ffffff;
      }

      .cls-4 {
        font-family: Acto-Black, Acto;
        font-size: 50.77px;
        font-weight: 800;
      }
    </style>
  </defs>
  <g id="Layer_1" data-name="Layer 1">
    <path class="cls-3" d="M2.93,47.63C21.43.6,79.9-15.42,119.63,16.98c7.42,6.05,14.57,14.46,18.47,23.26-5.48-8.12-11.64-15.24-19.69-20.9-23.56-16.57-54.81-16.02-78.17.57-10.22,7.25-17.04,16.72-22.82,27.71H2.93Z"/>
    <path class="cls-3" d="M136.68,48.96C121.79,11.1,74.71-1.8,42.72,24.29c-5.98,4.87-11.73,11.64-14.87,18.73,4.41-6.54,9.37-12.27,15.86-16.83,18.97-13.34,44.12-12.9,62.93.46,8.23,5.84,13.72,13.46,18.38,22.31h11.66Z"/>
    <path class="cls-3" d="M137.53,92.55c-18.5,47.03-76.97,63.05-116.7,30.64-7.42-6.05-14.57-14.46-18.47-23.26,5.48,8.12,11.64,15.24,19.69,20.9,23.56,16.57,54.81,16.02,78.17-.57,10.22-7.25,17.04-16.72,22.82-27.71h14.48Z"/>
    <path class="cls-3" d="M3.79,91.21c14.89,37.86,61.97,50.76,93.96,24.67,5.98-4.87,11.73-11.64,14.87-18.73-4.41,6.54-9.37,12.27-15.86,16.83-18.97,13.34-44.12,12.9-62.93-.46-8.23-5.84-13.72-13.46-18.38-22.31H3.79Z"/>
    <text class="cls-4" transform="translate(0 87.23) scale(1.38 1)"><tspan class="cls-2" x="0" y="0">FM</tspan><tspan class="cls-1" x="68.04" y="0">C</tspan></text>
  </g>
</svg>