<?xml version="1.0" encoding="UTF-8"?>
<svg id="Capa_2" data-name="Capa 2" xmlns="http://www.w3.org/2000/svg" viewBox="0 0 346.36 100.81">
  <defs>
    <style>
      .cls-1 {
        fill: #03b6e3;
      }

      .cls-2 {
        fill: #023a72;
      }

      .cls-3 {
        fill: #89bc06;
      }
    </style>
  </defs>
  <g id="Layer_1" data-name="Layer 1">
    <path class="cls-1" d="M.41,34.25C13.71.43,55.76-11.09,84.34,12.21c5.34,4.35,10.48,10.4,13.28,16.73-3.94-5.84-8.37-10.96-14.16-15.03-16.95-11.92-39.42-11.52-56.22.41-7.35,5.22-12.26,12.02-16.41,19.93H.41Z"/>
    <path class="cls-3" d="M96.6,35.21C85.89,7.98,52.03-1.29,29.03,17.47c-4.3,3.51-8.44,8.37-10.69,13.47,3.17-4.7,6.74-8.82,11.4-12.1,13.64-9.59,31.73-9.27,45.26.33,5.92,4.2,9.87,9.68,13.22,16.05h8.39Z"/>
    <path class="cls-3" d="M97.21,66.56c-13.3,33.82-55.35,45.34-83.93,22.04-5.34-4.35-10.48-10.4-13.28-16.73,3.94,5.84,8.37,10.96,14.16,15.03,16.95,11.92,39.42,11.52,56.22-.41,7.35-5.22,12.26-12.02,16.41-19.93h10.42Z"/>
    <path class="cls-1" d="M1.02,65.6c10.71,27.23,44.56,36.51,67.57,17.74,4.3-3.51,8.44-8.37,10.69-13.47-3.17,4.7-6.74,8.82-11.4,12.1-13.64,9.59-31.73,9.27-45.26-.33-5.92-4.2-9.87-9.68-13.22-16.05H1.02Z"/>
    <g>
      <path class="cls-2" d="M24.4,43.85h-13.83v3.83h11.52v5.95h-11.52v9.09H.56v-24.83h23.84v5.95Z"/>
      <path class="cls-2" d="M42.96,44.33l2.56,5.29h.1l2.31-5.29,3.12-6.43h12.88v24.83h-10.01v-9.68l.2-4.71h-.1l-5.68,10.66h-6.84l-5.68-10.66h-.1l.25,4.71v9.68h-9.1v-24.83h12.62l3.47,6.43Z"/>
      <path class="cls-2" d="M96.12,60.98c-3.97,1.39-7.64,2.12-11.97,2.12-12.22,0-16.7-5.66-16.7-12.78s4.48-12.78,16.7-12.78c4.33,0,8,.73,11.97,2.12l-1.81,5.48c-3.17-1.06-6.44-1.64-9-1.64-5.08,0-7.85,2.26-7.85,6.83s2.77,6.83,7.85,6.83c2.56,0,5.83-.58,9-1.61l1.81,5.44Z"/>
    </g>
    <g>
      <path class="cls-2" d="M138.7,31.22h-9.42v3.34h7.84v5.18h-7.84v7.92h-6.82v-21.62h16.24v5.18Z"/>
      <path class="cls-2" d="M139.42,36.85c0-6.2,3.29-11.13,11.06-11.13s11.07,4.93,11.07,11.13-3.29,11.13-11.07,11.13-11.06-4.93-11.06-11.13ZM154.73,36.85c0-3.98-1.4-5.95-4.25-5.95s-4.25,1.97-4.25,5.95,1.4,5.95,4.25,5.95,4.25-2,4.25-5.95Z"/>
      <path class="cls-2" d="M176.35,47.66l-3.56-7h-2.02v7h-6.82v-21.62h10.45c5.21,0,8.77,2.7,8.77,7.31,0,2.96-1.44,5.09-3.8,6.26l4.66,8.04h-7.67ZM170.77,35.48h2.95c1.37,0,2.64-.48,2.64-2.13s-1.3-2.13-2.57-2.13h-3.01v4.26Z"/>
      <path class="cls-2" d="M196.36,31.63l1.75,4.61h.07l1.58-4.61,2.12-5.6h8.77v21.62h-6.82v-8.43l.14-4.1h-.07l-3.87,9.29h-4.66l-3.87-9.29h-.07l.17,4.1v8.43h-6.2v-21.62h8.6l2.36,5.6Z"/>
      <path class="cls-2" d="M213.05,36.85c0-6.2,3.29-11.13,11.06-11.13s11.06,4.93,11.06,11.13-3.29,11.13-11.06,11.13-11.06-4.93-11.06-11.13ZM228.36,36.85c0-3.98-1.41-5.95-4.25-5.95s-4.25,1.97-4.25,5.95,1.4,5.95,4.25,5.95,4.25-2,4.25-5.95Z"/>
      <path class="cls-2" d="M253.17,31.85c-2.95-.79-5.45-1.08-7.19-1.08-1.44,0-2.36.38-2.36,1.34,0,2.67,11.61,1.02,11.61,8.87,0,4.93-4.18,7-9.39,7-2.77,0-5.75-.16-9.39-1.08l.92-5.06c3.43.79,6.41,1.11,8.15,1.11,1.44,0,2.88-.41,2.88-1.5,0-2.7-11.61-1.27-11.61-9.35,0-4.61,4.18-6.39,9.04-6.39,2.81,0,5.24.29,8.74,1.24l-1.4,4.9Z"/>
      <path class="cls-2" d="M269.48,43.27h-6.1l-1.23,4.39h-6.68l7.02-21.78h8.22l7.06,21.78h-6.95l-1.34-4.39ZM266.36,32.46l-1.85,6.2h3.84l-1.88-6.2h-.1Z"/>
      <path class="cls-3" d="M131.27,63.54l3.49,6.39h.07l3.46-6.39,4.62-8.55h3.15v21.62h-2.47v-18.06h-.07l-7.98,14.44h-1.78l-7.98-14.44v18.06h-2.29v-21.62h3.08l4.69,8.55Z"/>
      <path class="cls-3" d="M150.52,65.71c0-6.01,2.47-11.03,9.63-11.03s9.63,5.02,9.63,11.03-2.47,11.23-9.63,11.23-9.63-5.12-9.63-11.23ZM167.27,65.71c0-4.83-1.61-9.09-7.12-9.09s-7.12,4.26-7.12,9.09,1.61,9.29,7.12,9.29,7.12-4.48,7.12-9.29Z"/>
      <path class="cls-3" d="M187.94,56.93h-6.78v19.68h-2.5v-19.68h-6.78v-1.94h16.07v1.94Z"/>
      <path class="cls-3" d="M190.03,65.71c0-6.01,2.47-11.03,9.63-11.03s9.63,5.02,9.63,11.03-2.47,11.23-9.63,11.23-9.63-5.12-9.63-11.23ZM206.78,65.71c0-4.83-1.61-9.09-7.12-9.09s-7.12,4.26-7.12,9.09,1.61,9.29,7.12,9.29,7.12-4.48,7.12-9.29Z"/>
      <path class="cls-3" d="M238.06,75.47c-2.4.92-5.04,1.46-7.64,1.46-7.33,0-9.83-4.93-9.83-11.13s2.5-11.13,9.83-11.13c2.6,0,5.24.54,7.64,1.46l-.45,1.81c-2.77-.99-4.97-1.34-6.92-1.34-5.72,0-7.6,4.17-7.6,9.19s1.88,9.19,7.6,9.19c1.95,0,4.15-.35,6.92-1.3l.45,1.78Z"/>
      <path class="cls-3" d="M256.15,76.61l-5.93-8.9h-5.93v8.9h-2.5v-21.62h9.42c4.49,0,7.02,2.8,7.02,6.36,0,3.24-1.88,5.63-5.28,6.2l6.03,9.06h-2.84ZM244.3,65.77h6.68c2.95,0,4.76-1.65,4.76-4.42s-1.82-4.42-4.52-4.42h-6.92v8.84Z"/>
      <path class="cls-3" d="M276.85,56.93h-11.92v7.47h10.34v1.94h-10.34v8.33h12.09v1.94h-14.59v-21.62h14.42v1.94Z"/>
      <path class="cls-3" d="M281.06,76.61v-21.62h8.05c7.16,0,9.63,4.71,9.63,10.72s-2.47,10.91-9.63,10.91h-8.05ZM289.11,74.67c5.52,0,7.12-4.17,7.12-8.97s-1.61-8.78-7.12-8.78h-5.65v17.74h5.65Z"/>
      <path class="cls-3" d="M303.2,76.61v-21.62h2.5v21.62h-2.5Z"/>
      <path class="cls-3" d="M325.02,56.93h-6.78v19.68h-2.5v-19.68h-6.78v-1.94h16.07v1.94Z"/>
      <path class="cls-3" d="M327.11,65.71c0-6.01,2.47-11.03,9.63-11.03s9.63,5.02,9.63,11.03-2.47,11.23-9.63,11.23-9.63-5.12-9.63-11.23ZM343.86,65.71c0-4.83-1.61-9.09-7.12-9.09s-7.12,4.26-7.12,9.09,1.61,9.29,7.12,9.29,7.12-4.48,7.12-9.29Z"/>
    </g>
  </g>
</svg>